<?xml version="1.0" encoding="utf-8"?>
<!-- Generator: Adobe Illustrator 25.2.0, SVG Export Plug-In . SVG Version: 6.00 Build 0)  -->
<svg version="1.1" id="Layer_1" xmlns="http://www.w3.org/2000/svg" xmlns:xlink="http://www.w3.org/1999/xlink" x="0px" y="0px"
	 viewBox="0 0 1366 768" style="enable-background:new 0 0 1366 768;" xml:space="preserve">
<style type="text/css">
	.st0{fill:none;stroke:#000000;stroke-width:2.2714;stroke-miterlimit:10;}
</style>
<g>
	<path d="M725,268.9l0-151.2l30.8,0c14.2,0,24.8,2.9,31.7,8.6c6.9,5.7,12.1,14.4,15.5,26c3.5,11.6,5.2,25.4,5.2,41.3
		c0,15.1-1.8,28.3-5.5,39.7c-3.7,11.4-8.8,20.2-15.5,26.3c-6.7,6.1-17.2,9.2-31.4,9.2L725,268.9z M741.9,252.2h11.3
		c11.5,0,19.7-2.4,24.6-7.1c4.9-4.8,8.4-11.3,10.5-19.8c2.1-8.4,3.1-20,3.1-34.8c0-14.5-1.2-25.7-3.7-33.5c-2.5-7.8-6-13.8-10.5-18
		c-4.6-4.2-12.1-6.3-22.6-6.3l-12.7,0L741.9,252.2z"/>
	<polygon points="634.2,269.2 665.6,148.2 697.7,269.2 715.5,269.2 675.2,118 658,118 618,269.2 	"/>
</g>
<path class="st0" d="M424.3,190.7C174.1,252-76.1,313.3-326.3,374.5c48.9-103,97.8-205.9,146.8-308.9
	C21.7,107.3,223,149,424.3,190.7z"/>
<path class="st0" d="M989.7,186.6c250.2,61.3,500.4,122.5,750.6,183.8c-48.9-103-97.8-205.9-146.8-308.9
	C1392.3,103.2,1191,144.9,989.7,186.6z"/>
</svg>
