<?xml version="1.0" encoding="utf-8"?>
<!-- Generator: Adobe Illustrator 25.2.0, SVG Export Plug-In . SVG Version: 6.00 Build 0)  -->
<svg version="1.1" id="Layer_1" xmlns="http://www.w3.org/2000/svg" xmlns:xlink="http://www.w3.org/1999/xlink" x="0px" y="0px"
	 viewBox="0 0 144 144" style="enable-background:new 0 0 144 144;" xml:space="preserve">
<style type="text/css">
	.st0{fill:#010101;}
</style>
<g>
	<path class="st0" d="M79.7,121V22.8h20c9.2,0,16.1,1.9,20.6,5.6s7.8,9.3,10.1,16.9c2.3,7.6,3.4,16.5,3.4,26.8
		c0,9.8-1.2,18.4-3.5,25.8c-2.4,7.4-5.7,13.1-10.1,17.1s-11.2,6-20.4,6L79.7,121z M90.7,110.1h7.3c7.5,0,12.8-1.5,16-4.6
		c3.1-3.1,5.4-7.3,6.8-12.8c1.4-5.5,2-13,2-22.6c0-9.4-0.8-16.7-2.4-21.7c-1.6-5.1-3.9-8.9-6.9-11.7c-3-2.7-7.8-4.1-14.6-4.1h-8.2
		L90.7,110.1z"/>
	<polygon class="st0" points="20.8,121.2 41.2,42.6 62,121.2 73.6,121.2 47.4,23 36.3,23 10.2,121.2 	"/>
</g>
</svg>
