<?xml version="1.0" encoding="utf-8"?>
<!-- Generator: Adobe Illustrator 25.2.1, SVG Export Plug-In . SVG Version: 6.00 Build 0)  -->
<svg version="1.1" id="Layer_1" xmlns="http://www.w3.org/2000/svg" xmlns:xlink="http://www.w3.org/1999/xlink" x="0px" y="0px"
	 viewBox="0 0 572.6 266" style="enable-background:new 0 0 572.6 266;" xml:space="preserve">
<g>
	<path d="M308.9,258.4l0-248.8l50.7,0c23.4,0,40.8,4.7,52.1,14.1c11.3,9.4,19.9,23.7,25.6,42.8c5.7,19.1,8.5,41.8,8.5,67.9
		c0,24.8-3,46.6-9,65.4c-6,18.8-14.5,33.2-25.6,43.3c-11,10.1-28.2,15.2-51.7,15.2H308.9z M336.8,231l18.6,0
		c18.9,0,32.4-3.9,40.4-11.7c8-7.8,13.8-18.7,17.2-32.5c3.5-13.9,5.2-32.9,5.2-57.2c0-23.9-2-42.2-6.1-55
		c-4-12.8-9.8-22.7-17.4-29.5c-7.5-6.9-19.9-10.3-37.1-10.3l-20.8,0L336.8,231z"/>
	<polygon points="159.6,259 211.2,60 264,259 293.3,259 227,10.2 198.7,10.2 132.8,259 	"/>
</g>
</svg>
